<svg xmlns="http://www.w3.org/2000/svg" width="400" height="260" viewBox="0 0 400 260">
  <rect width="400" height="260" fill="#fff8e1"/>
  <!-- top bread -->
  <path d="M80,100 Q200,60 320,100 L320,130 Q200,130 80,130 Z" fill="#8d6e63"/>
  <path d="M80,100 Q200,72 320,100 Q200,80 80,100" fill="#a1887f"/>
  <!-- cheese -->
  <rect x="82" y="130" width="236" height="14" rx="2" fill="#ffd54f"/>
  <!-- lettuce -->
  <path d="M80,144 Q120,136 160,144 Q200,136 240,144 Q280,136 320,144 L320,154 Q280,146 240,154 Q200,146 160,154 Q120,146 80,154 Z" fill="#8bc34a"/>
  <!-- bottom bread -->
  <rect x="80" y="154" width="240" height="36" rx="6" fill="#795548"/>
  <rect x="80" y="178" width="240" height="12" rx="0 0 6 6" fill="#6d4c41"/>
  <!-- seeds on top -->
  <circle cx="140" cy="90" r="3" fill="#5d4037"/>
  <circle cx="180" cy="82" r="3" fill="#5d4037"/>
  <circle cx="220" cy="85" r="3" fill="#5d4037"/>
  <circle cx="260" cy="92" r="3" fill="#5d4037"/>
  <text x="200" y="225" font-family="Arial,sans-serif" font-size="14" fill="#5d4037" text-anchor="middle" font-weight="bold">Sourdough Rye Sandwich</text>
</svg>
